<svg id="Layer_1" data-name="Layer 1" xmlns="http://www.w3.org/2000/svg" xmlns:xlink="http://www.w3.org/1999/xlink" viewBox="0 0 148.1 148.79"><defs><style>.cls-1{fill:#fff;stroke:#fbb03b;}.cls-1,.cls-2,.cls-3,.cls-4,.cls-5{stroke-miterlimit:10;}.cls-1,.cls-4{stroke-width:3px;}.cls-2,.cls-3{fill:none;}.cls-2,.cls-4,.cls-5{stroke:#fff;}.cls-3{stroke:#000;}.cls-4{fill:url(#linear-gradient);}.cls-5{font-size:22.46px;fill:#1b1464;stroke-width:0.25px;font-family:Poppins-ExtraBold, Poppins;font-weight:800;}</style><linearGradient id="linear-gradient" x1="14.44" y1="105.05" x2="133.66" y2="105.05" gradientUnits="userSpaceOnUse"><stop offset="0" stop-color="#009245"/><stop offset="1" stop-color="#1b1464"/></linearGradient></defs><path class="cls-1" d="M134.6,74.4a61.38,61.38,0,0,1-.73,9.45c-.08.56-.19,1.14-.29,1.71l-1.31-.79c-18.93,10.75-32.73,11.32-42.73,8.75-6.77-1.75-11.6-4.88-16.35-8.07-5.94-4-11.75-8.13-21-9.69-13.51-2.29-26.54,2.18-37.83,8.86a59.31,59.31,0,0,1-.87-10.22,60.56,60.56,0,1,1,121.11,0Z"/><path class="cls-2" d="M74.84,83.85c-.53.31-1.06.63-1.59.92"/><path class="cls-3" d="M74.18,84.62a2.2,2.2,0,0,0-.26.15"/><path class="cls-4" d="M133.66,85.56a60.57,60.57,0,0,1-119.17-.62c0-.1,0-.21-.05-.32,11.29-6.68,24.32-11.15,37.83-8.86,9.25,1.56,15,5.68,21,9.69,4.75,3.19,9.58,6.32,16.34,8.07,10,2.57,23.81,2,42.74-8.75Z"/><path class="cls-3" d="M74.21,84.94a2.48,2.48,0,0,1-.32-.17"/><path class="cls-4" d="M14.44,85.56a60.56,60.56,0,0,0,119.16-.62,3,3,0,0,0,.06-.32c-11.29-6.68-24.32-11.15-37.83-8.86-9.25,1.56-15.06,5.68-21,9.69-4.75,3.19-9.57,6.32-16.34,8.07-10,2.57-23.8,2-42.74-8.75Z"/><text class="cls-5" transform="translate(31.7 63.25)">CHEMO</text></svg>